name 900006_30Moments.mot
datacolumns 7
datarows 40
range 0.10000000 0.42500001
endheader

                time	          RHipMoment	          LHipMoment	         RKneeMoment	         LKneeMoment	        RAnkleMoment	        LAnkleMoment	
          0.10000000	         86.19142151	       -472.43038940	        -28.69463539	        150.21246338	        -10.96344566	        -29.40115929	
          0.10833333	         45.73365021	       -449.92602539	        -15.12179661	        153.27447510	        -10.34213161	        -32.82215881	
          0.11666667	         10.12453842	       -418.12738037	         -2.76471424	        152.16992188	         -9.79297066	        -34.38702774	
          0.12500000	        -15.51173687	       -375.40390015	          5.74375486	        144.69476318	         -9.29944324	        -32.90880966	
          0.13333334	        -30.32993698	       -331.62628174	          8.62900257	        132.17991638	         -8.85198784	        -29.43385124	
          0.14166667	        -37.53953934	       -291.35656738	          6.32566786	        117.86698914	         -8.47123814	        -25.02699852	
          0.15000001	        -42.25207901	       -255.19750977	          1.56548834	        104.19762421	         -8.16644955	        -20.71959496	
          0.15833333	        -49.84445190	       -222.76715088	         -2.34487152	         91.07305145	         -7.93891191	        -16.79021835	
          0.16666667	        -58.75245667	       -192.21620178	         -3.86878586	         77.54928589	         -7.78633070	        -13.85126019	
          0.17500001	        -71.49251556	       -162.09468079	         -2.41083121	         62.81250381	         -7.67434835	        -11.84412575	
          0.18333334	        -78.90962982	       -130.79104614	          0.19889978	         46.98111343	         -7.52977276	        -10.73874569	
          0.19166666	        -81.71558380	       -102.24523926	          3.34869957	         31.51504135	         -7.33394194	         -9.54415894	
          0.20000000	        -76.42615509	        -78.87723541	          5.02270222	         18.14890480	         -7.17098856	         -8.06942463	
          0.20833334	        -70.36049652	        -64.94113159	          5.07622957	          8.14890957	         -7.15617228	         -6.76273870	
          0.21666667	        -59.19193268	        -57.43259430	          2.57426000	          1.80610180	         -7.32471752	         -5.93754101	
          0.22500001	        -50.65670013	        -51.91724777	         -0.33480218	         -1.93843341	         -7.58109856	         -5.68651533	
          0.23333333	        -45.53614807	        -45.39943695	         -2.26733589	         -5.05132103	         -7.85241365	         -6.06742191	
          0.24166667	        -54.56471634	        -37.53523254	         -0.42871282	         -9.14549732	         -8.17967319	         -7.15314674	
          0.25000000	        -69.03971100	        -24.76960182	          3.00944734	        -15.59976101	         -8.46425629	         -8.94213963	
          0.25833333	        -79.78765869	         -3.06685352	          5.56007385	        -25.33185768	         -8.51837635	        -11.05152416	
          0.26666665	        -80.76102448	         26.45404816	          6.08238268	        -36.97637177	         -8.41285515	        -12.95829105	
          0.27500001	        -81.16502380	         59.37216949	          6.58860683	        -48.66341782	         -8.30185795	        -14.37469959	
          0.28333333	        -81.60000610	         85.11050415	          6.90172291	        -58.16435623	         -8.23556519	        -15.21924305	
          0.29166669	        -80.60693359	         99.62846375	          6.71991301	        -64.98547363	         -8.08791924	        -15.49177933	
          0.30000001	        -75.77233124	        105.58672333	          5.04207134	        -70.51419067	         -7.69439125	        -15.18829918	
          0.30833334	        -68.82830811	        100.27940369	          2.95381474	        -74.21553802	         -7.17618465	        -14.43806553	
          0.31666666	        -66.10237885	         78.10556030	          1.79363930	        -75.13273621	         -6.77702093	        -13.55695724	
          0.32499999	        -61.51556778	         50.28656006	          0.56060994	        -75.28813934	         -6.60784626	        -12.75839424	
          0.33333331	        -50.26807022	         31.12946701	         -2.11023569	        -77.43780518	         -6.71629667	        -12.14273548	
          0.34166667	        -35.71744537	         32.82073593	         -5.28943491	        -84.12363434	         -7.10471678	        -11.80499649	
          0.34999999	        -28.65615463	         55.46491623	         -7.15246201	        -95.72896576	         -7.68458033	        -11.76676083	
          0.35833335	        -29.32968903	         87.65373993	         -7.04169035	       -109.28970337	         -8.22647476	        -12.00569248	
          0.36666667	        -38.18061447	        127.36427307	         -5.49868488	       -124.76340485	         -8.50676060	        -12.30107307	
          0.37500000	        -49.25504684	        174.65449524	         -3.85475707	       -142.06427002	         -8.47384930	        -12.34137821	
          0.38333333	        -63.20815277	        213.57542419	         -2.40941381	       -157.65879822	         -8.20294857	        -11.98376656	
          0.39166668	        -75.49362946	        239.55102539	         -1.50316191	       -169.96659851	         -7.90297985	        -11.15339184	
          0.40000001	        -79.20973206	        255.33799744	         -1.97150850	       -178.61627197	         -7.73883581	         -9.95099449	
          0.40833333	        -71.26947021	        264.61846924	         -4.55966473	       -183.79087830	         -7.72161674	         -8.60845852	
          0.41666666	        -56.59231949	        268.63192749	         -8.99064636	       -185.41290283	         -7.86300945	         -7.25043440	
          0.42500001	        -42.64792633	        260.12948608	        -13.07527065	       -180.91806030	         -8.05784988	         -6.04108429	
